<svg width="347" height="360" viewBox="0 0 347 360" fill="none" xmlns="http://www.w3.org/2000/svg">
<circle cx="277.173" cy="152.906" r="48.546" fill="url(#paint0_linear_211_165)"/>
<path d="M293.769 241.971H-130C-130 188.435 -81.1469 182.261 -56.7203 185.866C-56.7203 140.982 -1.33847 140.577 8.11697 160.18C23.2457 109.618 105.711 109.482 112.802 154.772C133.064 57.0956 256.66 103.737 256.66 172.685C306.024 164.281 330.12 176.271 340.398 193.77C355.384 219.285 323.36 241.971 293.769 241.971Z" fill="#E9F7FF"/>
<path d="M322.021 247H-108C-108 197.572 -62.7243 191.872 -40.0865 195.2C-40.0865 153.761 11.2398 153.386 20.0028 171.485C34.0237 124.803 110.45 124.678 117.022 166.492C135.8 76.3111 250.345 119.373 250.345 183.031C327.497 169.947 338.048 210.408 332.898 238.512C331.958 243.644 327.238 247 322.021 247Z" fill="#F8FCFF"/>
<path d="M313.033 247H-91C-91 201.317 -49.3095 196.048 -28.4643 199.125C-28.4643 160.824 18.7977 160.478 26.8668 177.206C39.7774 134.06 110.152 133.945 116.204 172.591C133.495 89.2421 238.97 129.042 238.97 187.877C317.586 174.495 321.102 221.716 313.033 247Z" fill="white"/>
<path d="M274.043 76.8201H76.2861C71.9691 22.6967 117.881 26.6351 121.996 39.9755C134.185 -22.0248 230.873 -3.85694 227.064 39.9755C264.52 12.3418 283.883 55.8568 274.043 76.8201Z" fill="#E9F7FF"/>
<path d="M267.731 77H91.2553C87.4028 28.3863 128.374 31.9237 132.046 43.9061C142.923 -11.7827 229.207 4.53568 225.807 43.9061C259.233 19.0854 276.512 58.1707 267.731 77Z" fill="#F8FCFF"/>
<path d="M143.93 368.962H-53.8272C-58.1442 314.839 -12.2328 318.777 -8.11772 332.118C4.07149 270.118 100.76 288.285 96.9507 332.118C134.407 304.484 153.77 347.999 143.93 368.962Z" fill="#E9F7FF"/>
<path d="M132.883 369H-31.7618C-35.356 323.909 2.86812 327.19 6.29415 338.304C16.4424 286.651 96.9414 301.787 93.77 338.304C124.955 315.282 141.076 351.535 132.883 369Z" fill="white"/>
<defs>
<linearGradient id="paint0_linear_211_165" x1="277.173" y1="104.36" x2="341.19" y2="201.452" gradientUnits="userSpaceOnUse">
<stop stop-color="#FFF7AE"/>
<stop offset="1" stop-color="#FFEA31"/>
</linearGradient>
</defs>
</svg>
