<svg width="538" height="401" viewBox="0 0 538 401" fill="none" xmlns="http://www.w3.org/2000/svg">
<path d="M742.107 401H0C0 317.156 76.575 307.487 114.863 313.133C114.863 242.839 201.671 242.204 216.492 272.904C240.206 193.718 369.466 193.506 380.582 264.435C412.341 111.462 606.072 184.508 606.072 292.489C750.471 267.929 756.928 354.596 742.107 401Z" fill="#E9F7FF"/>
<path d="M721.845 401H20C20 321.616 92.4205 312.461 128.631 317.807C128.631 251.252 210.73 250.651 224.747 279.718C247.174 204.744 369.421 204.544 379.933 271.7C409.97 126.863 593.19 196.024 593.19 298.261C729.755 275.007 735.862 357.065 721.845 401Z" fill="#F8FCFF"/>
<path d="M650.895 389H92C92 326.092 149.67 318.837 178.505 323.073C178.505 270.332 243.882 269.855 255.044 292.89C272.903 233.476 370.252 233.318 378.623 286.535C402.542 171.76 548.444 226.566 548.444 307.584C657.194 289.157 662.057 354.183 650.895 389Z" fill="white"/>
<path d="M773.814 141.02H444.047C436.849 50.8239 513.408 57.3872 520.27 79.6188C540.595 -23.7042 701.826 6.57244 695.475 79.6188C757.934 33.5674 790.223 106.085 773.814 141.02Z" fill="#E9F7FF"/>
<path d="M766.159 141H467.432C460.911 59.2725 530.264 65.2196 536.48 85.3639C554.893 -8.25795 700.948 19.1759 695.194 85.3639C751.774 43.6363 781.024 109.345 766.159 141Z" fill="#F8FCFF"/>
<path d="M755.577 141H489.385C483.574 68.4317 545.374 73.7122 550.913 91.599C567.32 8.46924 697.468 32.8286 692.341 91.599C742.759 54.5478 768.823 112.893 755.577 141Z" fill="white"/>
<path d="M441.456 75.1635H246.282C242.022 22.2073 287.334 26.0608 291.395 39.1135C303.425 -21.5499 398.85 -3.77377 395.091 39.1135C432.058 12.0756 451.168 54.6523 441.456 75.1635Z" fill="#E9F7FF"/>
<path d="M434.123 75.4816H267.507C263.869 38.8451 302.551 41.511 306.018 50.5412C316.288 8.57283 397.751 20.8708 394.542 50.5412C426.1 31.8358 442.414 61.2914 434.123 75.4816Z" fill="#F8FCFF"/>
<path d="M422.542 75.4816H288.46C285.533 45.8906 316.661 48.0438 319.451 55.3375C327.716 21.4399 393.272 31.3729 390.689 55.3375C416.085 40.2292 429.213 64.0203 422.542 75.4816Z" fill="white"/>
</svg>
