<svg width="123" height="32" viewBox="0 0 123 32" fill="none" xmlns="http://www.w3.org/2000/svg">
<path d="M35.4586 14.1101C37.4706 14.5686 39.2435 15.7517 40.439 17.4338C41.6345 19.1158 42.169 21.1791 41.9405 23.2301C41.712 25.281 40.7366 27.1761 39.2003 28.5538C37.6639 29.9316 35.6742 30.6956 33.6106 30.7001H10.5106C7.90668 30.7027 5.39469 29.7377 3.46228 27.9924C1.52986 26.2471 0.314872 23.846 0.0531833 21.2553C-0.208505 18.6646 0.501773 16.0691 2.04613 13.9726C3.59049 11.8761 5.85875 10.4283 8.41058 9.91009V9.70009C8.40925 8.58945 8.70156 7.4982 9.25788 6.53694C9.81419 5.57567 10.6147 4.77855 11.5784 4.22638C12.542 3.6742 13.6345 3.38658 14.7452 3.39268C15.8558 3.39877 16.945 3.69836 17.9026 4.26109C19.3761 2.80507 21.2489 1.81949 23.2834 1.42934C25.3179 1.03919 27.4225 1.26205 29.3301 2.06966C31.2378 2.87726 32.8626 4.23323 33.9986 5.96558C35.1345 7.69793 35.7304 9.72862 35.7106 11.8001C35.7106 12.5981 35.6266 13.3541 35.4586 14.1101Z" fill="white"/>
<path d="M57.7441 3.96875H62.8848L67.8848 21.4531L72.9316 3.96875H77.9316L70.0723 27H65.5254L57.7441 3.96875ZM90.5723 18.7188H85.6816V27H80.9004V3.96875H90.9316C93.2441 3.96875 95.0879 4.5625 96.4629 5.75C97.8379 6.9375 98.5254 8.77604 98.5254 11.2656C98.5254 13.9844 97.8379 15.9062 96.4629 17.0312C95.0879 18.1562 93.1243 18.7188 90.5723 18.7188ZM92.8223 13.9219C93.4473 13.3698 93.7598 12.4948 93.7598 11.2969C93.7598 10.099 93.4421 9.24479 92.8066 8.73438C92.1816 8.22396 91.3014 7.96875 90.166 7.96875H85.6816V14.75H90.166C91.3014 14.75 92.1868 14.474 92.8223 13.9219ZM110.494 23.6719C111.63 23.6719 112.551 23.5469 113.26 23.2969C114.604 22.8177 115.275 21.9271 115.275 20.625C115.275 19.8646 114.942 19.276 114.275 18.8594C113.609 18.4531 112.562 18.0938 111.135 17.7812L108.697 17.2344C106.301 16.6927 104.645 16.1042 103.729 15.4688C102.176 14.4062 101.4 12.7448 101.4 10.4844C101.4 8.42188 102.15 6.70833 103.65 5.34375C105.15 3.97917 107.354 3.29688 110.26 3.29688C112.687 3.29688 114.755 3.94271 116.463 5.23438C118.182 6.51562 119.083 8.38021 119.166 10.8281H114.541C114.458 9.44271 113.854 8.45833 112.729 7.875C111.979 7.48958 111.046 7.29688 109.932 7.29688C108.692 7.29688 107.702 7.54688 106.963 8.04688C106.223 8.54688 105.854 9.24479 105.854 10.1406C105.854 10.9635 106.218 11.5781 106.947 11.9844C107.416 12.2552 108.416 12.5729 109.947 12.9375L113.916 13.8906C115.656 14.3073 116.968 14.8646 117.854 15.5625C119.229 16.6458 119.916 18.2135 119.916 20.2656C119.916 22.3698 119.109 24.1198 117.494 25.5156C115.89 26.901 113.619 27.5938 110.682 27.5938C107.682 27.5938 105.322 26.9115 103.604 25.5469C101.885 24.1719 101.025 22.2865 101.025 19.8906H105.619C105.765 20.9427 106.051 21.7292 106.479 22.25C107.26 23.1979 108.598 23.6719 110.494 23.6719Z" fill="white" fill-opacity="0.9"/>
</svg>
