<svg width="35" height="35" viewBox="0 0 35 35" fill="none" xmlns="http://www.w3.org/2000/svg">
<rect width="35" height="35" rx="17.5" fill="url(#paint0_linear_23_1585)"/>
<g clip-path="url(#clip0_23_1585)">
<path d="M17.3162 17.1296C18.6558 17.1296 19.8157 16.6492 20.7635 15.7012C21.7113 14.7535 22.1917 13.5939 22.1917 12.2542C22.1917 10.9149 21.7113 9.75515 20.7633 8.80707C19.8154 7.85946 18.6556 7.37903 17.3162 7.37903C15.9765 7.37903 14.8169 7.85946 13.8691 8.80723C12.9214 9.755 12.4408 10.9148 12.4408 12.2542C12.4408 13.5939 12.9214 14.7537 13.8693 15.7014C14.8172 16.649 15.977 17.1296 17.3162 17.1296ZM25.847 22.944C25.8196 22.5496 25.7643 22.1193 25.6829 21.665C25.6008 21.2073 25.495 20.7746 25.3684 20.379C25.2376 19.9703 25.0597 19.5666 24.8398 19.1797C24.6115 18.7782 24.3434 18.4286 24.0426 18.1409C23.728 17.8399 23.3428 17.5979 22.8974 17.4213C22.4536 17.2458 21.9617 17.1568 21.4356 17.1568C21.2289 17.1568 21.0291 17.2416 20.6432 17.4929C20.3688 17.6715 20.0937 17.8489 19.8177 18.025C19.5526 18.194 19.1934 18.3523 18.7497 18.4956C18.3168 18.6357 17.8773 18.7067 17.4435 18.7067C17.0097 18.7067 16.5703 18.6357 16.137 18.4956C15.6938 18.3524 15.3346 18.1942 15.0697 18.0252C14.7625 17.8289 14.4846 17.6498 14.2435 17.4927C13.858 17.2414 13.658 17.1566 13.4514 17.1566C12.9251 17.1566 12.4334 17.2457 11.9897 17.4215C11.5446 17.5977 11.1593 17.8397 10.8444 18.141C10.5437 18.4289 10.2755 18.7783 10.0475 19.1797C9.82779 19.5666 9.64988 19.9701 9.5189 20.3792C9.39239 20.7747 9.28663 21.2073 9.20448 21.665C9.12308 22.1187 9.06781 22.5492 9.04045 22.9445C9.01323 23.3424 8.99974 23.741 9 24.1398C9 25.1965 9.33589 26.0518 9.99826 26.6827C10.6524 27.3052 11.518 27.621 12.5706 27.621H22.3172C23.3699 27.621 24.2351 27.3054 24.8895 26.6827C25.552 26.0523 25.8879 25.1968 25.8879 24.1396C25.8877 23.7318 25.874 23.3295 25.847 22.944Z" fill="white"/>
</g>
<defs>
<linearGradient id="paint0_linear_23_1585" x1="36.7143" y1="17.5" x2="1.32546e-07" y2="17.5" gradientUnits="userSpaceOnUse">
<stop stop-color="#0B80EC"/>
<stop offset="1" stop-color="#6FA6FB"/>
</linearGradient>
<clipPath id="clip0_23_1585">
<rect width="17" height="20.3203" fill="white" transform="translate(9 7.33984)"/>
</clipPath>
</defs>
</svg>
