<svg width="47" height="30" viewBox="0 0 47 30" fill="none" xmlns="http://www.w3.org/2000/svg">
<path d="M40.4488 13.11C42.4608 13.5685 44.2337 14.7516 45.4292 16.4337C46.6247 18.1157 47.1592 20.179 46.9307 22.2299C46.7023 24.2809 45.7269 26.1759 44.1905 27.5537C42.6542 28.9314 40.6644 29.6954 38.6008 29.7H15.5008C12.8969 29.7026 10.3849 28.7376 8.45251 26.9923C6.52009 25.247 5.30511 22.8459 5.04342 20.2552C4.78173 17.6645 5.49201 15.069 7.03637 12.9725C8.58073 10.876 10.849 9.42813 13.4008 8.90997V8.69997C13.3995 7.58933 13.6918 6.49808 14.2481 5.53681C14.8044 4.57555 15.605 3.77843 16.5686 3.22625C17.5323 2.67407 18.6248 2.38646 19.7354 2.39255C20.846 2.39865 21.9353 2.69824 22.8928 3.26097C24.3664 1.80495 26.2392 0.81937 28.2737 0.429219C30.3082 0.0390694 32.4127 0.26193 34.3204 1.06954C36.228 1.87714 37.8529 3.23311 38.9888 4.96546C40.1247 6.69781 40.7206 8.7285 40.7008 10.8C40.7008 11.598 40.6168 12.354 40.4488 13.11Z" fill="url(#paint0_linear_207_186)"/>
<ellipse cx="10" cy="11" rx="10" ry="10.5" fill="url(#paint1_linear_207_186)"/>
<defs>
<linearGradient id="paint0_linear_207_186" x1="46.9824" y1="15.3918" x2="-29.6287" y2="3.07648" gradientUnits="userSpaceOnUse">
<stop stop-color="#9DDFF4"/>
<stop offset="1" stop-color="white"/>
</linearGradient>
<linearGradient id="paint1_linear_207_186" x1="10" y1="0.5" x2="24.1005" y2="20.8674" gradientUnits="userSpaceOnUse">
<stop stop-color="#FFF7AE"/>
<stop offset="1" stop-color="#FFEA31"/>
</linearGradient>
</defs>
</svg>
